<svg width="18" height="18" viewBox="0 0 18 18" fill="none" xmlns="http://www.w3.org/2000/svg">
<path d="M16 9H18C18 3.86943 14.1313 0 9 0V2C13.0575 2 16 4.94355 16 9Z" fill="#BDBDBD"/>
<path d="M9.98308 6.03418C11.9726 6.03418 11.9657 6.02742 11.9657 8.01678H13.9484C13.9484 4.96604 13.0341 4.05158 9.98308 4.05158V6.03418ZM12.957 10.9907C12.7753 10.8255 12.2113 10.9831 11.9657 10.9907C11.7202 10.9983 11.1456 10.8146 10.9744 10.9907L8.99175 12.9733C8.44683 12.8692 7.14549 13.1067 6.01779 11.982C4.89009 10.8534 5.12769 9.54918 5.02647 9.00808L7.00911 7.02548C7.18547 6.85438 7.00152 6.27977 7.00911 6.03418C7.0167 5.7886 7.17456 5.22455 7.00911 5.04288L4.03514 1.07768C3.86962 0.89545 3.28954 1.09305 3.04382 1.07768C2.79811 1.06232 2.23944 0.917493 2.0525 1.07768L0.0698552 3.06028C-0.0937074 3.22442 0.0830239 3.82025 0.0698552 4.05158C0.0556644 4.28808 -0.309144 9.61881 4.03514 13.9646C7.82504 17.7532 12.6409 17.9298 13.9484 17.9298C13.9171 17.9317 14.1395 17.9298 13.9484 17.9298C14.1797 17.9168 14.7763 18.0941 14.9397 17.9298L16.9223 15.9472C17.0827 15.7604 16.9375 15.2016 16.9223 14.9559C16.9071 14.7102 17.1044 14.1302 16.9223 13.9646L12.957 10.9907Z" fill="#BDBDBD"/>
</svg>
