<svg width="17" height="13" viewBox="0 0 17 13" fill="none" xmlns="http://www.w3.org/2000/svg">
<path d="M15 0H2C1.065 0 0 1.10625 0 2V11C0 11.8938 1.065 13 2 13H15C15.935 13 17 11.8938 17 11V2C17 1.10625 15.935 0 15 0ZM15 3L9 7C8.728 7.1625 8.272 7.1625 8 7L2 3C1.91477 2.95427 2.05953 3.07411 2 3C1.94047 2.92589 2.02421 3.09052 2 3C1.97579 2.90948 1.98499 3.09232 2 3C2.01501 2.90768 1.9482 2.07923 2 2C2.0518 1.92077 1.91976 2.05335 2 2C2.08024 1.94665 1.90427 2.01886 2 2C2.09573 1.98114 2.90423 1.98133 3 2C3.09577 2.01867 2.91964 1.94681 3 2L9 6L14 2C14.0804 1.94681 13.9042 2.01867 14 2C14.0958 1.98133 14.9043 1.98114 15 2C15.0957 2.01886 14.9198 1.94665 15 2C15.0802 2.05335 14.9482 1.92077 15 2C15.0518 2.07923 14.985 2.90768 15 3C15.0242 2.90948 15.015 3.09232 15 3C15.0595 2.92589 14.9758 3.09052 15 3C15.0852 2.95427 14.9405 3.07411 15 3Z" fill="#BDBDBD"/>
</svg>
