<svg width="20" height="20" viewBox="0 0 20 20" fill="none" xmlns="http://www.w3.org/2000/svg">
<path d="M10 20C8.64583 20 7.23698 19.5273 6 19C4.76302 18.4727 3.89193 17.8919 3 17C2.10807 16.1081 1.52734 15.237 1 14C0.472656 12.763 0 11.3542 0 10C0 8.64583 0.472656 7.23698 1 6C1.52734 4.76302 2.10807 3.89193 3 3C3.89193 2.10807 4.76302 1.52734 6 1C7.23698 0.472656 8.64583 0 10 0C11.3542 0 12.763 0.472656 14 1C15.237 1.52734 16.1081 2.10807 17 3C17.8919 3.89193 18.4727 4.76302 19 6C19.5273 7.23698 20 8.64583 20 10C20 11.3542 19.5273 12.763 19 14C18.4727 15.237 17.8919 16.1081 17 17C16.1081 17.8919 15.237 18.4727 14 19C12.763 19.5273 11.3542 20 10 20ZM15 6C15 5.66146 15.2409 5.2474 15 5C14.7591 4.7526 14.3516 5 14 5H6C5.66146 5 5.2474 4.7526 5 5C4.7526 5.2474 5 5.66146 5 6V8H7C7.75521 7.16667 8.90625 6 10 6C11.0938 6 12.2448 7.16667 13 8H15V6ZM8 10C8 10.6901 7.51172 11.5117 8 12C8.48828 12.4883 9.3099 13 10 13C10.6901 13 11.5117 12.4883 12 12C12.4883 11.5117 13 10.6901 13 10C13 9.3099 12.4883 8.48828 12 8C11.5117 7.51172 10.6901 8 10 8C9.3099 8 8.48828 7.51172 8 8C7.51172 8.48828 8 9.3099 8 10ZM15 9H14C14.1562 9.42969 14 9.59635 14 10C14 11.0417 13.7292 12.2708 13 13C12.2708 13.7292 11.0417 14 10 14C8.95833 14 7.72917 13.7292 7 13C6.27083 12.2708 6 11.0417 6 10C6 9.59635 5.84375 9.42969 6 9H5V14C5 14.3516 4.75911 14.7591 5 15C5.24089 15.2409 5.64844 15 6 15H14C14.3516 15 14.7591 15.2409 15 15C15.2409 14.7591 15 14.3516 15 14V9Z" fill="#BDBDBD"/>
</svg>
