<svg width="14" height="19" viewBox="0 0 14 19" fill="none" xmlns="http://www.w3.org/2000/svg">
<path d="M7 0C3.13 0 0 3.1649 0 6.87292C0 10.8684 4.18 16.5567 6 18.6551C6.4 19.115 7.6 19.115 8 18.6551C9.81 16.5567 14 10.8684 14 6.87292C14 3.1649 10.87 0 7 0ZM7 8.83661C6.33696 8.83661 5.46884 9.28583 5 8.83661C4.53116 8.38739 5 7.50821 5 6.87292C5 6.23763 4.53116 5.35845 5 4.90923C5.46884 4.46001 6.33696 3.92738 7 3.92738C7.66304 3.92738 8.53116 4.46001 9 4.90923C9.46884 5.35845 10 6.23763 10 6.87292C10 7.50821 9.46884 8.38739 9 8.83661C8.53116 9.28583 7.66304 8.83661 7 8.83661Z" fill="#BDBDBD"/>
</svg>
